<svg viewBox="0 0 512 512" width="512" height="512" xmlns="http://www.w3.org/2000/svg" role="img">
  <title>Action Spa Warehouse</title>
  <desc>A white line-art warehouse on an Action Spa blue tile.</desc>
  <rect width="512" height="512" rx="112" fill="#1e3a8a"/>
  <g fill="none" stroke="#ffffff" stroke-width="13" stroke-linejoin="round" stroke-linecap="round">
    <polyline points="70,250 256,150 442,250"/>
    <polyline points="92,250 256,168 420,250"/>
    <line x1="70" y1="250" x2="442" y2="250"/>
    <line x1="92" y1="272" x2="420" y2="272"/>
    <line x1="108" y1="272" x2="108" y2="400"/>
    <line x1="404" y1="272" x2="404" y2="400"/>
    <line x1="108" y1="400" x2="404" y2="400"/>
    <g stroke-width="8">
      <line x1="96" y1="250" x2="96" y2="272"/>
      <line x1="122" y1="250" x2="122" y2="272"/>
      <line x1="148" y1="250" x2="148" y2="272"/>
      <line x1="174" y1="250" x2="174" y2="272"/>
      <line x1="200" y1="250" x2="200" y2="272"/>
      <line x1="226" y1="250" x2="226" y2="272"/>
      <line x1="252" y1="250" x2="252" y2="272"/>
      <line x1="278" y1="250" x2="278" y2="272"/>
      <line x1="304" y1="250" x2="304" y2="272"/>
      <line x1="330" y1="250" x2="330" y2="272"/>
      <line x1="356" y1="250" x2="356" y2="272"/>
      <line x1="382" y1="250" x2="382" y2="272"/>
      <line x1="408" y1="250" x2="408" y2="272"/>
    </g>
    <g stroke-width="10">
      <rect x="132" y="288" width="112" height="50" rx="3"/>
      <line x1="132" y1="305" x2="244" y2="305"/>
      <line x1="132" y1="322" x2="244" y2="322"/>
      <rect x="268" y="288" width="112" height="50" rx="3"/>
      <line x1="268" y1="305" x2="380" y2="305"/>
      <line x1="268" y1="322" x2="380" y2="322"/>
    </g>
    <g stroke-width="8">
      <rect x="120" y="360" width="26" height="22" rx="2"/>
      <line x1="146" y1="342" x2="146" y2="390"/>
      <line x1="146" y1="382" x2="118" y2="382"/>
      <line x1="146" y1="390" x2="118" y2="390"/>
      <rect x="150" y="342" width="30" height="18" rx="2"/>
      <rect x="150" y="360" width="64" height="30" rx="2"/>
      <circle cx="166" cy="394" r="10"/>
      <circle cx="202" cy="394" r="10"/>
    </g>
    <g stroke-width="8">
      <rect x="256" y="346" width="46" height="26" rx="2"/>
      <rect x="304" y="346" width="46" height="26" rx="2"/>
      <rect x="352" y="346" width="46" height="26" rx="2"/>
      <rect x="256" y="372" width="46" height="26" rx="2"/>
      <rect x="304" y="372" width="46" height="26" rx="2"/>
      <rect x="352" y="372" width="46" height="26" rx="2"/>
      <line x1="279" y1="346" x2="279" y2="355"/><line x1="264" y1="355" x2="294" y2="355"/>
      <line x1="327" y1="346" x2="327" y2="355"/><line x1="312" y1="355" x2="342" y2="355"/>
      <line x1="375" y1="346" x2="375" y2="355"/><line x1="360" y1="355" x2="390" y2="355"/>
      <line x1="279" y1="372" x2="279" y2="381"/><line x1="264" y1="381" x2="294" y2="381"/>
      <line x1="327" y1="372" x2="327" y2="381"/><line x1="312" y1="381" x2="342" y2="381"/>
      <line x1="375" y1="372" x2="375" y2="381"/><line x1="360" y1="381" x2="390" y2="381"/>
    </g>
  </g>
</svg>
